<?xml version="1.0" encoding="UTF-8"?><svg id="Layer_1" xmlns="http://www.w3.org/2000/svg" viewBox="0 0 531.07 115.67"><defs><style>.cls-1{fill:#ffaf21;}.cls-2{fill:#fff;}</style></defs><path class="cls-1" d="M530.96,14.87c-2.52-7.87-6.95-12.03-15.49-12.88-26.26,1.54-54.9-2.09-80.87-.05-6.64.53-15.26,5.02-19.92,5.02-4.37,0-12.32-4.26-18.09-4.86-10.6-1.1-25.48-.86-31.89,8.79-4.34-2.42-8.12-5.21-12.89-6.95-6.29-2.29-12.12-2.5-18.48-3.94h-3.99c-20.09,1.64-46.18,12.68-48.8,35.3-1.31,11.27,6.35,25.93-6.59,32.13-.93.02-.56-7.09-.4-8.33,1.5-11.98,8.92-29.53,8.86-40.76-.1-21.94-36.89-19.58-48.38-8.41C218.93.88,200.18,1.43,183.07,1.94c-3.5.11-7.78,1.89-10.96,1.83-4.99-.1-9.29-2.23-15.93-1.77-6.82.47-14.88,4.98-19.99,4.94-4.46-.03-12.29-4.47-18.92-5-7.82-.61-15.81,1.93-21.85,1.68-6.17-.26-11.69-2.25-19.14-1.68-6.09.47-11.85,3.17-17.95,3.09-5.66-.08-11.44-2.57-16.97-3.03-14.04-1.19-26.45.08-30.94,14.83C6.66,29.18-.89,65.81.09,77.7c2.77,33.8,36.98,44.52,65.73,33.83,1.87-.7,5.22-3.4,6.34-3.3,1.82.17,7.38,4.29,12.13,4.81,12.12,1.31,19.13-3.6,28.04-3.88,5.17-.16,10.87,3.33,15.88,3.88,9.28,1.01,19.1-1.04,27.95-1.09,9.48-.06,19.82,3.24,29.44-.42,10.26-3.9,7.84-16.39,15.48-22.29,5.01-3.87,11.78-3.58,17.45-5.95-3.98,11.34-4.93,27.56,10.58,29.65,9.62,1.3,41.11,1.3,50.73,0,4.98-.67,7.74-3.32,11.06-6.68,17.4,11.99,41.59,12.33,59.91,2.09,6.03,5.5,16.97,5.49,24.83,4.57,4.52-.52,10.07-3.63,14.17-3.76,5.03-.16,10.38,3.18,14.97,3.79,6.97.92,26.08.81,31.86-2.88,3.91-2.5,5.47-8.77,5.99-8.94,1.67-.56,2.26,3.74,3.48,5.46,3.07,4.31,8.39,5.93,13.49,6.43,9.44.92,24.31.78,30.43-7.43,6.15-8.27,8.2-37.15,11.65-48.91,4.4-14.99,12.06-8.39,21.32-15.51,4.36-3.36,7.28-12.09,7.96-17.38.35-2.77-.25-6.06,0-8.92ZM457.06,98.48c.8-21.13,11.15-41.8,10.53-62.8-5.82-3.1-21.85-4.17-24.97,2.99-5.73,13.14-7,38.23-11.14,53.37-.52,1.91-1.48,6.08-3.02,7.17-4.02,2.83-22.77,3.12-26.31-.51-3.8-3.9-9.02-33.24-11.83-40.8-.51-1.37.36-1.7-2.09-1.39l-8.56,40.58c-3.54,5.9-22.78,6.67-21.17-3.09,6.69-22.61,8.04-50.34,15.04-72.4.6-1.9,1.59-4.51,3.31-5.64,4.38-2.86,22.51-3.43,25.81.93l12.53,43.58c1.52.25,1.18-1.85,1.46-2.97,3.02-11.92,4.03-26.6,7.77-37.91,1.83-5.5,6.81-5.37,12.17-5.75,19.32-1.36,39.66.32,58.89,1.07,3.79.15,21.79-.93,23.06.89,1.36,4.06-.81,13.36-4.02,15.96-4.9,3.96-13.59-.19-18.57,4.35-3.25,2.96-5.33,15.56-6.43,20.39-1.61,7.12-6.04,38.24-8.99,41.64-3.48,4.02-19.15,4.43-23.47.34ZM301.89,73.37c10.28,1.19,11.09,11.18,24.9,8.86,4.93-.83,7.65-5.43,4.25-9.57-2.6-3.15-15.73-6.02-20.35-8.04-13.38-5.84-21.81-17.85-16.5-32.6,7.53-20.87,39.55-24.17,57.12-14.69,15.29,8.25,19.07,25.9-5.27,22.09-7.6-1.19-16.52-10.12-24.1-4.63-2.14,1.55-2.38,4.38-.6,6.37,2.61,2.9,20.95,7.53,26.66,11.19,10.28,6.6,14.57,18.48,11,30.16-7.87,25.75-61.18,27.54-71.76,4.42-6.07-13.28,3.2-14.89,14.65-13.56ZM11.95,77.81c-.98-11.27,5.29-40.24,8.46-52.05,1.68-6.29,1.6-10.38,9.23-11.64,4.73-.79,15.89-1.43,17.05,4.46l-9.88,49.34c-.57,9.71,6.56,17.56,15.57,10.43,7.61-6.02,11.24-39.94,13.94-50.6,2.08-8.24,1.9-13.07,11.95-13.91,8.22-.68,15.33-.65,14.28,9.19-1.21,11.27-9.09,47.21-13.26,57.26-12.9,31.04-64.37,31.63-67.34-2.48ZM152.22,99.2c-3.49,3.08-24.15,2.99-27.55-.5-5.05-5.18-6.83-29.87-11.94-37.23-7.83,7.56-5.39,29.64-11.4,36.75-3.01,3.56-9.69,3.45-14.06,2.93-6.98-.82-6.82-4.23-6.19-10.16,1.87-17.39,9.43-49.83,14.18-67.21,1.42-5.2,1.77-7.72,7.69-9.22,4.83-1.24,17.92-1.57,21.74,1.82,5.43,4.82,7.42,31.35,13.51,38.13,3.95-.06,6.94-33.09,11-37.63,4.29-4.81,20.41-4.67,20.53,4.41.12,8.67-5.81,25.52-7.77,35.03-1.37,6.66-6.73,40.23-9.74,42.88ZM207.62,73.92c-4.49.87-8.7.04-13.27,1.69-11.78,4.26-7.55,20.69-14.17,24.6-3.08,1.81-24.1,3.18-22.29-5.24,7.25-23.18,8.59-50.09,15.39-73.01.5-1.68,1.33-4.7,2.63-5.81,3.72-3.18,23.52-2.68,29.2-2.31,14.67.94,29.27,5.83,31.29,22.46,2.32,19.14-10.29,34.01-28.78,37.62ZM277.93,101.13h-46.91c-.28,0-2.33-1.01-2.53-1.67.02-13.49,4.96-26.59,7.71-39.78,2.41-11.54,3.92-24.56,6.98-35.71,2.73-9.95,6.2-10.81,16.77-10.07,8.45.59,10.28,1.63,9.24,10.14-1.86,15.17-9.06,32.77-10.61,47.94-.21,2.09-.48,9.32,2.38,9.32,5.29,0,13.12-.71,17.97,0,1.17.17,3.66,1.99,5.35,2.12,1.29,4.04-1.1,17.71-6.35,17.71Z"/><path class="cls-2" d="M514.52,31.76c-4.9,3.96-13.59-.19-18.57,4.35-3.25,2.96-5.33,15.56-6.43,20.39-1.61,7.12-6.04,38.24-8.99,41.64-3.48,4.02-19.15,4.43-23.47.34.8-21.13,11.15-41.8,10.53-62.8-5.82-3.1-21.85-4.17-24.97,2.99-5.73,13.14-7,38.23-11.14,53.37-.52,1.91-1.48,6.08-3.02,7.17-4.02,2.83-22.77,3.12-26.31-.51-3.8-3.9-9.02-33.24-11.83-40.8-.51-1.37.36-1.7-2.09-1.39l-8.56,40.58c-3.54,5.9-22.78,6.67-21.17-3.09,6.69-22.61,8.04-50.34,15.04-72.4.6-1.9,1.59-4.51,3.31-5.64,4.38-2.86,22.51-3.43,25.81.93l12.53,43.58c1.52.25,1.18-1.85,1.46-2.97,3.02-11.92,4.03-26.6,7.77-37.91,1.83-5.5,6.81-5.37,12.17-5.75,19.32-1.36,39.66.32,58.89,1.07,3.79.15,21.79-.93,23.06.89,1.36,4.06-.81,13.36-4.02,15.96Z"/><path class="cls-2" d="M321.34,41.16c2.61,2.9,20.95,7.53,26.66,11.19,10.28,6.6,14.57,18.48,11,30.16-7.87,25.75-61.18,27.54-71.76,4.42-6.07-13.28,3.2-14.89,14.65-13.56,10.28,1.19,11.09,11.18,24.9,8.86,4.93-.83,7.65-5.43,4.25-9.57-2.6-3.15-15.73-6.02-20.35-8.04-13.38-5.84-21.81-17.85-16.5-32.6,7.53-20.87,39.55-24.17,57.12-14.69,15.29,8.25,19.07,25.9-5.27,22.09-7.6-1.19-16.52-10.12-24.1-4.63-2.14,1.55-2.38,4.38-.6,6.37Z"/><path class="cls-2" d="M277.93,101.13h-46.91c-.28,0-2.33-1.01-2.53-1.67.02-13.49,4.96-26.59,7.71-39.78,2.41-11.54,3.92-24.56,6.98-35.71,2.73-9.95,6.2-10.81,16.77-10.07,8.45.59,10.28,1.63,9.24,10.14-1.86,15.17-9.06,32.77-10.61,47.94-.21,2.09-.48,9.32,2.38,9.32,5.29,0,13.12-.71,17.97,0,1.17.17,4.81.39,5.35,2.12,1.29,4.04-1.1,17.71-6.35,17.71Z"/><path class="cls-2" d="M236.4,36.3c-2.02-16.63-16.62-21.52-31.29-22.46-5.68-.37-25.48-.87-29.2,2.31-1.3,1.11-2.13,4.13-2.63,5.81-6.8,22.92-8.14,49.83-15.39,73.01-1.81,8.42,19.21,7.05,22.29,5.24,6.62-3.91,2.39-20.34,14.17-24.6,4.57-1.65,8.78-.82,13.27-1.69,18.49-3.61,31.1-18.48,28.78-37.62ZM204.79,54.26c-14.6,6.06-14.05-18.21-4.5-20.34,13.72-3.06,16.5,15.37,4.5,20.34Z"/><path class="cls-2" d="M169.73,21.29c.12,8.67-5.81,25.52-7.77,35.03-1.37,6.66-6.73,40.23-9.74,42.88-3.49,3.08-24.15,2.99-27.55-.5-5.05-5.18-6.83-29.87-11.94-37.23-7.83,7.56-5.39,29.64-11.4,36.75-3.01,3.56-9.69,3.45-14.06,2.93-6.98-.82-6.82-4.23-6.19-10.16,1.87-17.39,9.43-49.83,14.18-67.21,1.42-5.2,1.77-7.72,7.69-9.22,4.83-1.24,17.92-1.57,21.74,1.82,5.43,4.82,7.42,31.35,13.51,38.13,3.95-.06,6.94-33.09,11-37.63,4.29-4.81,20.41-4.67,20.53,4.41Z"/><path class="cls-2" d="M92.55,23.03c-1.21,11.27-9.09,47.21-13.26,57.26-12.9,31.04-64.37,31.63-67.34-2.48-.98-11.27,5.29-40.24,8.46-52.05,1.68-6.29,1.6-10.38,9.23-11.64,4.73-.79,15.89-1.43,17.05,4.46l-9.88,49.34c-.57,9.71,6.56,17.56,15.57,10.43,7.61-6.02,11.24-39.94,13.94-50.6,2.08-8.24,1.9-13.07,11.95-13.91,8.22-.68,15.33-.65,14.28,9.19Z"/><path class="cls-1" d="M204.79,54.26c-14.6,6.06-14.05-18.21-4.5-20.34,13.72-3.06,16.5,15.37,4.5,20.34Z"/></svg>